PathFileType	4	(X/Y/Z)	C:\Users\dbl\Desktop\20210112\20210112\bx_n_5_902.trc
DataRate	CameraRate	NumFrames	NumMarkers	Units	OrigDataRate	OrigDataStartFrame	OrigNumFrames
50.00	50.00	       6	43	mm	50.00	137	       545
Frame#	Time	Top.Head			R.Acromium			L.Acromium			Sternum			R.ASIS			L.ASIS			V.Sacral			R.Thigh.Upper			R.Thigh.Front			R.Thigh.Rear			R.Knee.Lat			R.Knee.Med			R.Shank.Upper			R.Shank.Front			R.Shank.Rear			R.Ankle.Lat			R.Midfoot.Lat			R.Toe.Lat			R.Toe.Tip			R.Toe.Med			R.Ankle.Med			R.Midfoot.Sup			R.Heel			L.Thigh.Upper			L.Thigh.Front			L.Thigh.Rear			L.Knee.Lat			L.Knee.Med			L.Shank.Upper			L.Shank.Front			L.Shank.Rear			L.Ankle.Lat			L.Midfoot.Lat			L.Toe.Lat			L.Toe.Tip			L.Toe.Med			L.Ankle.Med			L.Midfoot.Sup			L.Heel			origin1 front left			origin2 front right			origin 3 back right			origin 4 back leftt			
		X1	Y1	Z1	X2	Y2	Z2	X3	Y3	Z3	X4	Y4	Z4	X5	Y5	Z5	X6	Y6	Z6	X7	Y7	Z7	X8	Y8	Z8	X9	Y9	Z9	X10	Y10	Z10	X11	Y11	Z11	X12	Y12	Z12	X13	Y13	Z13	X14	Y14	Z14	X15	Y15	Z15	X16	Y16	Z16	X17	Y17	Z17	X18	Y18	Z18	X19	Y19	Z19	X20	Y20	Z20	X21	Y21	Z21	X22	Y22	Z22	X23	Y23	Z23	X24	Y24	Z24	X25	Y25	Z25	X26	Y26	Z26	X27	Y27	Z27	X28	Y28	Z28	X29	Y29	Z29	X30	Y30	Z30	X31	Y31	Z31	X32	Y32	Z32	X33	Y33	Z33	X34	Y34	Z34	X35	Y35	Z35	X36	Y36	Z36	X37	Y37	Z37	X38	Y38	Z38	X39	Y39	Z39	X40	Y40	Z40	X41	Y41	Z41	X42	Y42	Z42	X43	Y43	Z43	

137	2.720	-134.37982	82.07924	1176.33179	-350.74799	-73.32141	1043.12378	-372.84216	234.11790	1047.72009	-519.26227	64.62612	977.14880	-791.51300	-37.49677	966.23596	-794.59375	205.92227	986.29523	-953.12537	61.26752	1093.91528	-870.97974	-99.32204	852.19446	-783.27026	-28.54061	797.82965	-862.99927	-88.99592	737.00031	-842.06250	-54.38937	601.61328	-818.86963	56.85809	563.85809	-836.38446	-50.32241	552.84863	-774.88281	0.69285	522.96533	-852.00476	-61.34522	464.57605	-765.01630	-25.39449	200.47894	-648.15015	-68.12760	160.69716	-605.34314	-73.14317	156.31477	-548.99939	-21.03675	162.75160	-601.00391	29.18142	167.02451	-729.74377	62.72135	220.87589	-675.18060	51.76079	164.62079	-795.77460	34.13408	172.26414	-896.03369	260.68729	861.56573	-781.54810	194.97374	788.56891	-866.49103	261.44489	726.95520	-866.66632	240.32025	622.18988	-818.54724	130.11908	562.81702	-849.61670	236.58134	560.68005	-787.32904	192.32043	534.75098	-866.26996	251.53200	480.91187	-774.25824	229.77940	202.00740	-659.15173	297.16574	158.76845	-622.95557	303.97714	159.36188	-558.23444	251.61685	163.64288	-594.89307	216.98149	173.22331	-723.82739	156.54842	222.01573	-677.77618	174.86177	162.75607	-800.27148	182.82170	179.97247	-528.17621	303.99643	146.33282	-518.16766	-72.64869	143.06726	-875.99536	-78.45283	140.94952	-882.56696	296.16699	144.66840	
138	2.740	-137.18390	82.04636	1190.86816	-353.33151	-73.73546	1051.86194	-374.59821	234.29419	1058.15051	-519.97095	64.72871	981.79834	-791.43427	-37.19938	967.32379	-794.61426	205.74484	987.95148	-954.28418	60.92667	1093.41382	-870.62878	-99.62564	852.40759	-782.83466	-28.85993	797.78931	-862.76062	-89.22765	737.06860	-841.91943	-54.72717	601.54578	-818.69104	56.55986	563.75433	-836.27472	-50.63253	552.88672	-774.72314	0.24213	522.80591	-851.87872	-61.52995	464.46631	-765.06854	-25.44739	200.44810	-648.16187	-68.19003	160.63960	-605.35278	-73.26649	156.25845	-549.01697	-21.22972	162.73065	-600.93640	29.10982	167.12083	-729.74951	62.60440	220.92186	-675.15747	51.68172	164.73868	-795.80347	34.06495	172.25589	-895.87634	260.33765	861.61572	-781.36902	194.97183	788.66412	-866.49500	261.06534	727.07507	-866.65710	240.09407	622.21631	-818.22931	130.13885	562.73602	-849.68457	236.50897	560.74347	-787.23737	192.42680	534.69806	-866.38458	251.36101	480.91495	-774.35284	229.80127	201.95265	-659.10687	297.17841	158.55885	-623.05432	303.92734	159.28024	-558.29321	251.65820	163.61754	-594.99139	217.10136	173.38173	-723.74451	156.65192	221.94861	-677.75702	174.75183	162.69099	-800.30188	182.85042	179.85204	-528.18433	303.99231	146.34683	-518.17688	-72.65755	143.07275	-875.97882	-78.45822	140.97473	-882.57922	296.16333	144.64944	
139	2.760	-140.22101	81.99174	1205.72864	-356.01422	-74.14633	1060.89270	-376.42496	234.47496	1068.65552	-520.69196	64.84786	986.60400	-791.33423	-36.85299	968.46832	-794.55493	205.62433	989.62329	-955.28650	60.60329	1092.90247	-870.32458	-100.03105	852.71216	-782.24091	-29.17013	797.90295	-862.30212	-89.38802	737.16864	-841.58295	-54.94347	601.45294	-818.35767	56.32059	563.75641	-835.98273	-50.85742	552.90753	-774.38672	-0.12528	522.71600	-851.64630	-61.69873	464.41531	-765.10144	-25.47967	200.44981	-648.18091	-68.24162	160.59312	-605.36749	-73.40252	156.21335	-549.02881	-21.41254	162.67883	-600.81354	29.03804	167.22044	-729.71893	62.51417	221.00183	-675.15430	51.61009	164.78204	-795.79272	34.07092	172.26088	-895.67310	259.98834	861.66895	-781.08069	195.05527	788.77020	-866.36987	260.66425	727.24261	-866.55640	240.01596	622.34375	-817.80743	130.19325	562.75806	-849.57935	236.50580	560.79181	-787.05573	192.57565	534.65234	-866.36615	251.31625	480.95920	-774.39508	229.92828	201.91064	-659.06854	297.23053	158.30441	-623.07648	303.90524	159.23650	-558.30280	251.68361	163.58467	-595.06110	217.18683	173.50177	-723.67773	156.82355	221.94197	-677.72003	174.67754	162.62686	-800.32825	183.04372	179.65950	-528.18365	303.99414	146.35265	-518.19958	-72.66355	143.08360	-875.96271	-78.46703	141.00713	-882.58185	296.16519	144.64246	
140	2.780	-143.53778	81.90654	1220.72070	-358.80249	-74.55321	1070.21521	-378.31558	234.72205	1079.14502	-521.42474	64.98358	991.56317	-791.12793	-36.55933	969.71832	-794.37524	205.64104	991.37506	-956.19592	60.32890	1092.37744	-869.96106	-100.45837	853.07343	-781.49146	-29.46280	798.10797	-861.64368	-89.44936	737.24457	-841.12012	-55.05837	601.36450	-817.92297	56.13944	563.82074	-835.59082	-51.04089	552.92126	-773.95398	-0.35991	522.68298	-851.35309	-61.88557	464.42508	-765.11438	-25.48958	200.45367	-648.19824	-68.27381	160.55507	-605.38123	-73.52757	156.18468	-549.03369	-21.56303	162.62286	-600.68323	28.96298	167.30354	-729.66003	62.44316	221.08516	-675.15430	51.54058	164.77271	-795.76050	34.11362	172.27669	-895.40918	259.58493	861.74939	-780.61743	195.26392	788.91229	-866.14264	260.29218	727.40643	-866.38464	240.04535	622.56641	-817.32336	130.25015	562.84406	-849.34058	236.53200	560.82397	-786.80396	192.73293	534.61493	-866.26428	251.31290	481.01263	-774.41339	230.08974	201.88358	-659.06555	297.29416	158.08401	-623.03357	303.91660	159.23213	-558.28564	251.70724	163.54384	-595.11243	217.25633	173.56531	-723.62775	156.99173	221.98595	-677.68542	174.66914	162.63586	-800.34851	183.30795	179.46107	-528.17938	303.99426	146.34605	-518.21954	-72.65234	143.07529	-875.95251	-78.47713	141.02827	-882.57782	296.17624	144.65459	
141	2.800	-147.13336	81.80446	1235.71948	-361.70493	-74.96188	1079.82849	-380.22266	235.04832	1089.63647	-522.16895	65.13588	996.67334	-790.71765	-36.41742	971.11243	-794.03491	205.84001	993.23676	-957.05035	60.10368	1091.86230	-869.38623	-100.78702	853.44098	-780.64703	-29.73621	798.30737	-860.89166	-89.44980	737.31171	-840.60144	-55.13735	601.31689	-817.41357	55.96739	563.88275	-835.17493	-51.23802	552.99408	-773.49524	-0.47918	522.70483	-851.02222	-62.09298	464.50128	-765.11078	-25.48113	200.44669	-648.21283	-68.28954	160.52159	-605.39630	-73.62639	156.18202	-549.03912	-21.67394	162.57922	-600.59119	28.89123	167.35875	-729.61633	62.37573	221.17570	-675.15833	51.47088	164.74870	-795.73547	34.13437	172.28958	-895.06158	259.18167	861.88776	-779.96747	195.59634	789.12268	-865.86670	260.04285	727.55579	-866.16193	240.12326	622.84485	-816.84454	130.30817	562.96503	-849.02045	236.54179	560.83496	-786.49805	192.90320	534.58551	-866.09210	251.31560	481.06650	-774.43433	230.25465	201.87292	-659.08856	297.34921	157.92464	-622.98401	303.94336	159.24591	-558.25708	251.73753	163.50554	-595.15955	217.31265	173.60016	-723.59106	157.10860	222.04724	-677.69177	174.71713	162.72737	-800.35382	183.55052	179.32610	-528.17859	303.98801	146.33583	-518.22333	-72.62609	143.03964	-875.94415	-78.48737	141.03325	-882.57178	296.17447	144.66225	
142	2.820	-150.94220	81.67813	1250.72095	-364.72031	-75.38971	1089.72327	-382.10623	235.42789	1100.24084	-522.92395	65.30473	1001.93213	-790.07111	-36.41620	972.63715	-793.53156	206.19034	995.19794	-957.87567	59.86652	1091.38123	-868.50012	-100.90244	853.73859	-779.75543	-30.00756	798.40973	-860.11914	-89.46346	737.42944	-840.03088	-55.22659	601.34601	-816.84570	55.73457	563.90674	-834.74628	-51.45532	553.16864	-773.01172	-0.54712	522.77295	-850.62891	-62.28964	464.64886	-765.09882	-25.46918	200.45110	-648.22382	-68.29863	160.49554	-605.40576	-73.68610	156.19292	-549.04883	-21.75021	162.55312	-600.55640	28.84195	167.39531	-729.60608	62.31226	221.29155	-675.17896	51.39507	164.74210	-795.74396	34.09595	172.28455	-894.59808	258.85107	862.08795	-779.20978	195.98502	789.37646	-865.58472	259.94775	727.70868	-865.88367	240.17554	623.12537	-816.37390	130.36993	563.10364	-848.64258	236.51576	560.83038	-786.16217	193.10474	534.56934	-865.82361	251.34642	481.15225	-774.45892	230.43730	201.89223	-659.11835	297.38367	157.82520	-622.97247	303.97528	159.25710	-558.21948	251.77756	163.48303	-595.19183	217.34251	173.63377	-723.56793	157.17552	222.10713	-677.74133	174.81976	162.86169	-800.33862	183.73172	179.27408	-528.17944	303.97900	146.33511	-518.20593	-72.62235	142.99594	-875.92841	-78.50223	141.03276	-882.57196	296.14270	144.64291	
